<svg width="20" height="20" viewBox="0 0 20 20" fill="none" xmlns="http://www.w3.org/2000/svg">
<g id="loading-02" clip-path="url(#clip0_12304_29781)">
<path id="Icon (Stroke)" fill-rule="evenodd" clip-rule="evenodd" d="M9.99967 0.833008C10.4599 0.833008 10.833 1.2061 10.833 1.66634V4.99967C10.833 5.45991 10.4599 5.83301 9.99967 5.83301C9.53944 5.83301 9.16634 5.45991 9.16634 4.99967V1.66634C9.16634 1.2061 9.53944 0.833008 9.99967 0.833008ZM3.51173 3.57704C3.83717 3.2516 4.3648 3.2516 4.69024 3.57704L7.04726 5.93406C7.3727 6.2595 7.3727 6.78713 7.04726 7.11257C6.72183 7.43801 6.19419 7.43801 5.86875 7.11257L3.51173 4.75555C3.18629 4.43011 3.18629 3.90247 3.51173 3.57704ZM16.4876 3.57704C16.8131 3.90247 16.8131 4.43011 16.4876 4.75555L14.1306 7.11257C13.8052 7.43801 13.2775 7.43801 12.9521 7.11257C12.6266 6.78713 12.6266 6.2595 12.9521 5.93406L15.3091 3.57704C15.6345 3.2516 16.1622 3.2516 16.4876 3.57704ZM0.833008 9.99967C0.833008 9.53944 1.2061 9.16634 1.66634 9.16634H4.99967C5.45991 9.16634 5.83301 9.53944 5.83301 9.99967C5.83301 10.4599 5.45991 10.833 4.99967 10.833H1.66634C1.2061 10.833 0.833008 10.4599 0.833008 9.99967ZM14.1663 9.99967C14.1663 9.53944 14.5394 9.16634 14.9997 9.16634H18.333C18.7932 9.16634 19.1663 9.53944 19.1663 9.99967C19.1663 10.4599 18.7932 10.833 18.333 10.833H14.9997C14.5394 10.833 14.1663 10.4599 14.1663 9.99967ZM7.04726 12.9521C7.3727 13.2775 7.3727 13.8052 7.04726 14.1306L4.69024 16.4876C4.3648 16.8131 3.83717 16.8131 3.51173 16.4876C3.18629 16.1622 3.18629 15.6345 3.51173 15.3091L5.86875 12.9521C6.19419 12.6266 6.72183 12.6266 7.04726 12.9521ZM12.9521 12.9521C13.2775 12.6266 13.8052 12.6266 14.1306 12.9521L16.4876 15.3091C16.8131 15.6345 16.8131 16.1622 16.4876 16.4876C16.1622 16.8131 15.6345 16.8131 15.3091 16.4876L12.9521 14.1306C12.6266 13.8052 12.6266 13.2775 12.9521 12.9521ZM9.99967 14.1663C10.4599 14.1663 10.833 14.5394 10.833 14.9997V18.333C10.833 18.7932 10.4599 19.1663 9.99967 19.1663C9.53944 19.1663 9.16634 18.7932 9.16634 18.333V14.9997C9.16634 14.5394 9.53944 14.1663 9.99967 14.1663Z" fill="url(#paint0_angular_12304_29781)"/>
</g>
<defs>
<radialGradient id="paint0_angular_12304_29781" cx="0" cy="0" r="1" gradientUnits="userSpaceOnUse" gradientTransform="translate(9.99967 9.99967) rotate(112.378) scale(9.19297)">
<stop stop-color="#0094FF"/>
<stop offset="1" stop-color="#0094FF" stop-opacity="0"/>
</radialGradient>
<clipPath id="clip0_12304_29781">
<rect width="20" height="20" fill="white"/>
</clipPath>
</defs>
</svg>
